<svg width="512" height="512" viewBox="0 0 512 512" fill="none" xmlns="http://www.w3.org/2000/svg">
<path fill-rule="evenodd" clip-rule="evenodd" d="M146.113 129.524C146.971 128.007 147.878 126.405 147.17 124.433C144.505 124.036 143.381 126.067 142.518 127.686C138.745 134.756 135.034 134.451 128.981 129.442C119.619 121.692 110.236 113.966 100.847 106.234C72.7349 83.0849 44.5623 59.886 16.6927 35.8462C17.4141 36.1067 18.1415 36.3585 18.8698 36.6105C20.489 37.1709 22.1125 37.7329 23.6847 38.3965C43.2 46.6828 62.7092 54.9781 82.2177 63.2731C106.787 73.7199 131.355 84.1662 155.933 94.5936C156.46 94.8173 156.988 95.0704 157.517 95.3239C160.377 96.6968 163.267 98.083 166.451 94.899C170.101 91.2492 169.948 87.5383 168.083 83.0945C163.176 71.4194 158.441 59.6834 153.707 47.9445C152.632 45.2809 151.557 42.6172 150.481 39.9541C150.325 39.5682 150.117 39.1753 149.906 38.7778C149.241 37.5236 148.552 36.2245 149.418 34.9605C150.587 33.2334 152.299 33.7288 153.929 34.2002C154.317 34.3123 154.701 34.4231 155.07 34.5024L155.552 34.6062C163.4 36.2972 171.262 37.9912 179.081 39.8319C186.889 41.6644 188.044 40.7328 186.427 33.2043C184.439 23.9963 182.376 14.8188 180.313 5.6414C180.222 5.24082 180.084 4.81819 179.944 4.39164C179.487 2.99687 179.01 1.54812 180.143 0.600863C181.686 -0.694195 183.056 0.361598 184.344 1.35404C184.726 1.64888 185.101 1.93813 185.471 2.15849C187.091 3.1198 188.726 4.06044 190.364 5.00165C195.176 7.76847 199.998 10.5402 204.4 13.8561C212.331 19.8423 220.847 20.6516 230.427 19.9645C314.054 14.024 383.296 43.4511 438.355 105.375C469.435 140.33 487.977 181.363 494.599 227.864C501.653 277.357 495.4 324.727 474.085 369.945C456.743 406.747 431.656 437.411 398.805 462.027C363.568 488.431 324.158 504.236 280.572 509.872C237.003 515.507 194.82 509.917 154.008 493.502C125.346 481.972 100.12 465.388 77.4341 444.756C77.0901 444.443 76.744 444.13 76.3973 443.817C73.8867 441.549 71.3452 439.253 69.4101 436.556C65.9142 431.67 65.7447 426.371 70.4882 422.079C75.247 417.772 80.4526 418.262 84.9343 422.614C95.3761 432.8 106.28 442.42 118.354 450.697C146.399 469.892 177.048 482.185 210.73 488.386C245.166 494.724 278.662 491.882 311.837 482.689C339.266 475.085 364.214 462.15 386.885 445C388.702 443.627 390.505 442.099 391.983 440.374C396.28 435.365 396.48 428.111 392.245 423.591C387.64 418.673 381.941 417.772 376.212 421.255C372.867 423.289 369.671 425.572 366.473 427.856C363.84 429.738 361.206 431.619 358.485 433.365C321.785 456.943 281.527 467.281 237.927 465.097C217.306 464.06 197.207 460.471 177.879 453.125C177.26 452.891 176.639 452.659 176.017 452.428C172.793 451.225 169.565 450.022 166.544 448.422C159.337 444.619 157.18 438.831 160.245 432.739C163.187 426.904 169.686 424.736 176.786 428.065C184.733 431.792 193.033 434.342 201.458 436.525C270.592 454.408 340.821 432.784 386.361 377.869C394.863 367.623 402.225 356.613 407.907 344.579C412.158 335.6 410.525 329.064 403.596 325.536C397.081 322.223 391.167 324.879 386.5 333.691C370.098 364.63 346.596 388.651 314.501 403.22C269.144 423.789 223.605 422.904 178.587 401.402C174.568 399.493 171.025 397.065 170.21 392.194C168.531 382.267 177.51 376.083 188.105 380.496C189.053 380.891 190 381.288 190.946 381.684C198.961 385.042 206.94 388.385 215.412 390.652C266.079 404.212 323.094 384.085 353.049 341.8C388.517 291.742 385.607 228.917 345.626 182.31C343.793 180.173 341.899 178.065 339.774 176.247C333.783 171.101 326.79 171.192 321.878 176.308C317.443 180.92 317.334 188.189 322.402 193.565C332.351 204.101 340.127 215.86 345.519 229.298C366.648 281.999 336.925 344.747 282.451 362.385C273.134 365.394 263.832 368.081 253.944 367.974C253.535 367.971 253.097 368.011 252.653 368.052C251.236 368.183 249.76 368.319 248.939 367.027C248.025 365.594 248.988 364.522 249.921 363.482C250.231 363.137 250.538 362.795 250.772 362.446C266.789 338.563 277.43 312.602 280.527 283.969C283.221 259.077 278.986 236.14 258.719 218.747C255.515 215.998 255.438 213.676 257.009 210.225C261.352 200.681 263.924 190.541 266.373 180.401C266.409 180.253 266.449 180.1 266.489 179.943C266.896 178.371 267.397 176.445 265.464 175.667C263.478 174.86 262.529 176.676 261.81 178.049C261.726 178.21 261.646 178.364 261.568 178.508C259.222 182.707 256.979 186.966 254.736 191.224C253.18 194.179 251.623 197.135 250.032 200.071C236.834 224.442 218.522 243.836 193.773 257C187.151 260.527 180.19 263.201 172.828 264.346C167.422 265.171 165.143 267.782 163.711 272.851C160.075 285.756 153.56 297.178 138.576 298.293C117.954 299.835 92.9735 289.817 92.5577 262.666C92.3421 248.571 95.0988 235.865 104.078 224.871C111.475 215.819 115.263 205.183 119.091 194.431L119.155 194.252C126.933 172.43 134.725 150.607 145.783 130.114C145.89 129.918 146.001 129.722 146.113 129.524ZM56.7392 388.548C56.7978 388.807 56.8452 389.017 56.8892 389.155C57.1202 394.897 55.2566 398.425 50.8213 399.769C46.2933 401.127 41.4266 401.479 38.2694 397.004C28.2588 382.787 20.8355 367.226 15.1988 350.901C13.3045 345.403 16.2769 340.899 21.9752 339.082C27.3655 337.356 32.6942 338.165 35.0353 343.739C41.0262 358.018 47.5407 372.005 55.5801 385.276C56.2491 386.382 56.5514 387.719 56.7392 388.548ZM136.112 414.307C134.202 418.612 130.906 421.102 124.576 421.377C122.713 421.544 120.048 420.094 117.661 418.063C107.497 409.48 98.179 400.089 90.109 389.536C85.2577 383.184 85.5965 376.724 90.6172 372.57C95.6841 368.371 102.615 368.784 107.666 374.693C115.798 384.207 124.592 393.019 133.555 401.723C137.143 405.205 138.222 409.572 136.112 414.307ZM436.924 392.178C461.134 355.909 473.932 315.946 475.811 273.904C475.811 272.746 475.837 271.742 475.859 270.844C475.902 269.122 475.936 267.782 475.765 266.468C474.763 258.207 468.988 253.03 461.488 253.502C454.265 253.961 450.492 258.268 450.492 267.247C450.507 304.889 439.819 339.402 419.983 371.287C419.025 372.824 418.003 374.323 416.982 375.823C415.13 378.545 413.28 381.262 411.82 384.176C408.755 390.255 410.804 396.973 416.055 400.318C421.354 403.693 428.067 402.608 432.626 397.553C434.167 395.859 435.661 394.072 436.924 392.178ZM401.947 266.117C403.026 250.465 399.838 235.361 395.74 220.38C393.431 211.905 396.172 205.736 402.963 203.721C409.632 201.751 415.223 205.629 418.149 214.013C425.804 235.988 426.866 258.696 425.649 281.617C425.187 290.215 420.105 295.27 413.052 295.026C405.967 294.766 401.856 289.375 401.963 280.564C401.983 277.557 401.971 274.543 401.96 271.532C401.954 269.726 401.947 267.921 401.947 266.117Z" fill="#84D160"/>
</svg>
