<svg width="22" height="22" viewBox="0 0 22 22" fill="none" xmlns="http://www.w3.org/2000/svg">
    <path d="M14.6647 7.3332C13.214 7.3332 11.7958 7.7633 10.5895 8.5691C9.3832 9.3749 8.44302 10.5202 7.88783 11.8602C7.33264 13.2002 7.18738 14.6747 7.47041 16.0973C7.75345 17.5198 8.45206 18.8265 9.47792 19.8521C10.5038 20.8777 11.8108 21.5761 13.2337 21.8591C14.6566 22.142 16.1315 21.9968 17.4718 21.4418C18.8122 20.8867 19.9578 19.9468 20.7638 18.7408C21.5698 17.5348 22 16.117 22 14.6666C21.9978 12.7223 21.2243 10.8583 19.8491 9.48351C18.474 8.10871 16.6095 7.33538 14.6647 7.3332ZM17.4155 15.5833H15.5816V17.4166C15.5816 17.6597 15.485 17.8929 15.3131 18.0648C15.1411 18.2367 14.9079 18.3333 14.6647 18.3333C14.4216 18.3333 14.1883 18.2367 14.0164 18.0648C13.8444 17.8929 13.7478 17.6597 13.7478 17.4166V15.5833H11.914C11.6708 15.5833 11.4376 15.4867 11.2657 15.3148C11.0937 15.1429 10.9971 14.9097 10.9971 14.6666C10.9971 14.4235 11.0937 14.1903 11.2657 14.0184C11.4376 13.8465 11.6708 13.7499 11.914 13.7499H13.7478V11.9166C13.7478 11.6735 13.8444 11.4403 14.0164 11.2684C14.1883 11.0965 14.4216 10.9999 14.6647 10.9999C14.9079 10.9999 15.1411 11.0965 15.3131 11.2684C15.485 11.4403 15.5816 11.6735 15.5816 11.9166V13.7499H17.4155C17.6586 13.7499 17.8919 13.8465 18.0638 14.0184C18.2358 14.1903 18.3324 14.4235 18.3324 14.6666C18.3324 14.9097 18.2358 15.1429 18.0638 15.3148C17.8919 15.4867 17.6586 15.5833 17.4155 15.5833ZM4.57874 10.9999H4.56132C4.38832 10.9965 4.2198 10.9443 4.07524 10.8493C3.93067 10.7542 3.81596 10.6202 3.74435 10.4627L0.128068 2.51058C-0.00283151 2.17801 -0.0342146 1.81458 0.0377385 1.46451C0.109692 1.11444 0.281878 0.792822 0.533342 0.538808C0.775154 0.295361 1.08074 0.125025 1.41501 0.0473568C1.74927 -0.030311 2.09867 -0.0121616 2.42309 0.0997211C2.45119 0.109519 2.47874 0.120841 2.50561 0.133638L10.4598 3.749C10.6162 3.82118 10.7492 3.93597 10.8434 4.08021C10.9376 4.22444 10.9892 4.3923 10.9924 4.56453C10.9955 4.73675 10.9501 4.90639 10.8612 5.05398C10.7724 5.20158 10.6437 5.32116 10.49 5.39902L7.09749 7.09487L5.40121 10.4866C5.3258 10.6404 5.20877 10.7701 5.0634 10.8608C4.91802 10.9515 4.75012 10.9997 4.57874 10.9999Z" fill="#404054"/>
</svg>
