<svg width="22" height="22" viewBox="0 0 22 22" fill="none" xmlns="http://www.w3.org/2000/svg">
    <path d="M16.6135 11C16.6135 10.644 16.902 10.3555 17.258 10.3555H18.5894C18.2788 6.66855 15.3315 3.72116 11.6445 3.41064V4.742C11.6445 5.09801 11.356 5.38654 11 5.38654C10.644 5.38654 10.3555 5.09801 10.3555 4.742V3.41064C6.66855 3.72116 3.72116 6.66855 3.41064 10.3555H4.742C5.09801 10.3555 5.38654 10.644 5.38654 11C5.38654 11.356 5.09801 11.6445 4.742 11.6445H3.41064C3.72116 15.3315 6.66855 18.2788 10.3555 18.5894V17.258C10.3555 16.902 10.644 16.6135 11 16.6135C11.356 16.6135 11.6445 16.902 11.6445 17.258V18.5894C15.3315 18.2788 18.2788 15.3315 18.5894 11.6445H17.258C16.902 11.6445 16.6135 11.356 16.6135 11ZM14.3428 14.3428C14.2169 14.4687 14.052 14.5317 13.8871 14.5317C13.7221 14.5317 13.5571 14.4687 13.4314 14.3428L10.5443 11.4557C10.4233 11.3349 10.3555 11.171 10.3555 11V7.60161C10.3555 7.24577 10.644 6.95708 11 6.95708C11.356 6.95708 11.6445 7.24577 11.6445 7.60161V10.733L14.3428 13.4314C14.5946 13.683 14.5946 14.0911 14.3428 14.3428Z" fill="#404054"/>
    <path d="M11 0C4.92479 0 0 4.92479 0 11C0 17.0752 4.92479 22 11 22C17.0752 22 22 17.0752 22 11C22 4.92479 17.0752 0 11 0ZM11 19.9059C6.08931 19.9059 2.09406 15.9107 2.09406 11C2.09406 6.08931 6.08931 2.09406 11 2.09406C15.9107 2.09406 19.9059 6.08931 19.9059 11C19.9059 15.9107 15.9107 19.9059 11 19.9059Z" fill="#404054"/>
</svg>
