<svg width="22" height="34" viewBox="0 0 22 34" fill="none" xmlns="http://www.w3.org/2000/svg">
<path d="M16.0928 10L5.90723 10C5.72705 9.99923 5.55114 9.94437 5.40174 9.84235C5.25234 9.74032 5.13617 9.59572 5.06791 9.42682C4.99965 9.25792 4.98236 9.07231 5.01825 8.89347C5.05413 8.71462 5.14156 8.55057 5.26949 8.42205L10.3532 3.27296C10.4378 3.18646 10.5386 3.11782 10.6496 3.07097C10.7607 3.02412 10.8797 3 11 3C11.1203 3 11.2393 3.02412 11.3504 3.07097C11.4614 3.11782 11.5622 3.18646 11.6468 3.27296L16.7305 8.42205C16.8584 8.55057 16.9459 8.71462 16.9818 8.89347C17.0176 9.07231 17.0004 9.25792 16.9321 9.42682C16.8638 9.59572 16.7477 9.74032 16.5983 9.84235C16.4489 9.94437 16.273 9.99923 16.0928 10Z" fill="#CFCFE4"/>
<path d="M5.90723 23L16.0928 23C16.273 23.0008 16.4489 23.0556 16.5983 23.1577C16.7477 23.2597 16.8638 23.4043 16.9321 23.5732C17.0004 23.7421 17.0176 23.9277 16.9818 24.1065C16.9459 24.2854 16.8584 24.4494 16.7305 24.578L11.6468 29.727C11.5622 29.8135 11.4614 29.8822 11.3504 29.929C11.2393 29.9759 11.1203 30 11 30C10.8797 30 10.7607 29.9759 10.6496 29.929C10.5386 29.8822 10.4378 29.8135 10.3532 29.727L5.2695 24.5779C5.14156 24.4494 5.05413 24.2854 5.01825 24.1065C4.98237 23.9277 4.99965 23.7421 5.06791 23.5732C5.13617 23.4043 5.25234 23.2597 5.40174 23.1577C5.55114 23.0556 5.72705 23.0008 5.90723 23Z" fill="#CFCFE4"/>
</svg>
