<svg width="10" height="5" viewBox="0 0 10 5" fill="none" xmlns="http://www.w3.org/2000/svg">
<path d="M9.14053 0.197198C9.07855 0.134713 9.00482 0.0851166 8.92358 0.051271C8.84234 0.0174253 8.7552 0 8.6672 0C8.57919 0 8.49205 0.0174253 8.41081 0.051271C8.32957 0.0851166 8.25584 0.134713 8.19386 0.197198L5.14053 3.25052C5.07855 3.31301 5.00482 3.3626 4.92358 3.39645C4.84234 3.43029 4.7552 3.44772 4.6672 3.44772C4.57919 3.44772 4.49205 3.43029 4.41081 3.39645C4.32957 3.3626 4.25584 3.31301 4.19386 3.25052L1.14053 0.197198C1.07855 0.134713 1.00482 0.0851166 0.92358 0.051271C0.84234 0.0174253 0.755203 0 0.667195 0C0.579187 0 0.49205 0.0174253 0.41081 0.051271C0.329571 0.0851166 0.255837 0.134713 0.193862 0.197198C0.0696944 0.322106 0 0.491073 0 0.667197C0 0.84332 0.0696944 1.01229 0.193862 1.1372L3.25386 4.19719C3.62886 4.57172 4.13719 4.78209 4.6672 4.78209C5.1972 4.78209 5.70553 4.57172 6.08053 4.19719L9.14053 1.1372C9.2647 1.01229 9.33439 0.84332 9.33439 0.667197C9.33439 0.491073 9.2647 0.322106 9.14053 0.197198V0.197198Z" fill="#CFCFE4"/>
</svg>
