<svg width="16" height="16" viewBox="0 0 16 16" fill="none" xmlns="http://www.w3.org/2000/svg">
<path fill-rule="evenodd" clip-rule="evenodd" d="M14.8619 6.18126C14.9869 6.05623 15.1565 5.986 15.3333 5.986C15.5101 5.986 15.6797 6.05623 15.8047 6.18126C15.9298 6.30628 16 6.47585 16 6.65266V10.8953C16.0011 11.3332 15.9153 11.7669 15.7477 12.1715C15.58 12.576 15.3338 12.9432 15.0233 13.252L13.2527 15.024C12.9438 15.3344 12.5764 15.5806 12.1717 15.7481C11.7671 15.9156 11.3333 16.0012 10.8953 16H3.33333C2.4496 15.9989 1.60237 15.6474 0.977479 15.0225C0.352588 14.3976 0.00105857 13.5504 0 12.6667V3.33333C0.00105857 2.4496 0.352588 1.60237 0.977479 0.977479C1.60237 0.352588 2.4496 0.00105857 3.33333 0H9.36133C9.53814 0 9.70771 0.0702379 9.83273 0.195262C9.95776 0.320286 10.028 0.489855 10.028 0.666666C10.028 0.843477 9.95776 1.01305 9.83273 1.13807C9.70771 1.26309 9.53814 1.33333 9.36133 1.33333H3.33333C2.8029 1.33333 2.29419 1.54405 1.91912 1.91912C1.54405 2.29419 1.33333 2.8029 1.33333 3.33333V12.6667C1.33333 13.1971 1.54405 13.7058 1.91912 14.0809C2.29419 14.4559 2.8029 14.6667 3.33333 14.6667H9.99999V12C9.99999 11.4696 10.2107 10.9609 10.5858 10.5858C10.9609 10.2107 11.4696 9.99999 12 9.99999H14.6667V6.65266C14.6667 6.47585 14.7369 6.30628 14.8619 6.18126ZM11.3333 14.6147C11.7031 14.5337 12.042 14.3487 12.31 14.0813L14.0833 12.3093C14.3493 12.0406 14.5342 11.7023 14.6167 11.3333H12C11.8232 11.3333 11.6536 11.4036 11.5286 11.5286C11.4036 11.6536 11.3333 11.8232 11.3333 12V14.6147ZM4.30761 8.74848L12.4356 0.620482C12.8318 0.241744 13.3588 0.0303819 13.9069 0.0303819C14.4551 0.0303819 14.9821 0.241744 15.3783 0.620482C15.7679 1.01103 15.9867 1.54016 15.9867 2.09181C15.9867 2.64346 15.7679 3.17259 15.3783 3.56315L7.25028 11.6911C6.94151 12.0016 6.57424 12.2477 6.16971 12.4152C5.76519 12.5827 5.33145 12.6684 4.89361 12.6671H3.99828C3.82147 12.6671 3.6519 12.5969 3.52687 12.4719C3.40185 12.3469 3.33161 12.1773 3.33161 12.0005V11.1051C3.33037 10.6673 3.416 10.2336 3.58353 9.82904C3.75106 9.42451 3.99717 9.05724 4.30761 8.74848ZM6.30761 10.7485L14.4356 2.62048C14.5756 2.48014 14.6542 2.29002 14.6542 2.09181C14.6542 1.89361 14.5756 1.70349 14.4356 1.56315C14.2932 1.42712 14.1039 1.35121 13.9069 1.35121C13.71 1.35121 13.5207 1.42712 13.3783 1.56315L5.25028 9.69114C4.87665 10.0671 4.66633 10.5751 4.66494 11.1051V11.3338H4.89361C5.42361 11.3324 5.93169 11.1221 6.30761 10.7485Z" fill="#CFCFE4"/>
</svg>
