<svg width="10" height="8" viewBox="0 0 10 8" fill="none" xmlns="http://www.w3.org/2000/svg">
<path fill-rule="evenodd" clip-rule="evenodd" d="M8.90211 0.632477C9.02172 0.50712 9.15927 0.444443 9.31475 0.444443C9.47024 0.444443 9.60779 0.50712 9.72739 0.632477C9.83504 0.745298 9.88886 0.886322 9.88886 1.05555C9.88886 1.22479 9.83504 1.36581 9.72739 1.47863L4.00425 7.51453C3.99229 7.52706 3.98033 7.5396 3.96837 7.55213C3.95641 7.56467 3.94445 7.57721 3.93249 7.58974C3.82485 7.7151 3.69029 7.77778 3.52882 7.77778C3.36735 7.77778 3.2328 7.7151 3.12515 7.58974L0.272552 4.6188C0.164906 4.50598 0.111084 4.36496 0.111084 4.19572C0.111084 4.02649 0.164906 3.88547 0.272552 3.77265C0.392158 3.64729 0.529704 3.58461 0.685192 3.58461C0.84068 3.58461 0.978226 3.64729 1.09783 3.77265L3.51985 6.31111L8.90211 0.632477Z" fill="#F0F0FA"/>
</svg>
