<svg width="16" height="16" viewBox="0 0 16 16" fill="none" xmlns="http://www.w3.org/2000/svg">
<path d="M15.5003 0.499772C15.2659 0.265433 14.948 0.133789 14.6165 0.133789C14.2851 0.133789 13.9672 0.265433 13.7328 0.499772L8.00026 6.23227L2.26776 0.499772C2.03335 0.265433 1.71547 0.133789 1.38401 0.133789C1.05256 0.133789 0.73467 0.265433 0.500261 0.499772C0.265922 0.734182 0.134277 1.05207 0.134277 1.38352C0.134277 1.71498 0.265922 2.03286 0.500261 2.26727L6.23276 7.99977L0.500261 13.7323C0.265922 13.9667 0.134277 14.2846 0.134277 14.616C0.134277 14.9475 0.265922 15.2654 0.500261 15.4998C0.73467 15.7341 1.05256 15.8658 1.38401 15.8658C1.71547 15.8658 2.03335 15.7341 2.26776 15.4998L8.00026 9.76727L13.7328 15.4998C13.9672 15.7341 14.2851 15.8658 14.6165 15.8658C14.948 15.8658 15.2659 15.7341 15.5003 15.4998C15.7346 15.2654 15.8662 14.9475 15.8662 14.616C15.8662 14.2846 15.7346 13.9667 15.5003 13.7323L9.76776 7.99977L15.5003 2.26727C15.7346 2.03286 15.8662 1.71498 15.8662 1.38352C15.8662 1.05207 15.7346 0.734182 15.5003 0.499772V0.499772Z" fill="#9797BB"/>
</svg>
