<svg width="16" height="15" viewBox="0 0 16 15" fill="none" xmlns="http://www.w3.org/2000/svg">
<path d="M12.6667 1.33333L8.31467 1.33333C8.21156 1.33401 8.10965 1.31122 8.01667 1.26667L5.91267 0.210667C5.63493 0.0723634 5.32893 0.000257561 5.01867 0L3.33333 0C2.4496 0.00105857 1.60237 0.352588 0.97748 0.97748C0.352588 1.60237 0.00105857 2.4496 0 3.33333L0 11.3333C0.00105857 12.2171 0.352588 13.0643 0.97748 13.6892C1.60237 14.3141 2.4496 14.6656 3.33333 14.6667L12.6667 14.6667C13.5504 14.6656 14.3976 14.3141 15.0225 13.6892C15.6474 13.0643 15.9989 12.2171 16 11.3333V4.66667C15.9989 3.78294 15.6474 2.93571 15.0225 2.31081C14.3976 1.68592 13.5504 1.33439 12.6667 1.33333ZM3.33333 1.33333L5.01867 1.33333C5.12177 1.33265 5.22368 1.35545 5.31667 1.4L7.42067 2.45267C7.69813 2.59212 8.00413 2.66537 8.31467 2.66667L12.6667 2.66667C13.0654 2.66732 13.4548 2.78711 13.7849 3.01067C14.115 3.23424 14.3708 3.55136 14.5193 3.92133L1.33333 3.996V3.33333C1.33333 2.8029 1.54405 2.29419 1.91912 1.91912C2.29419 1.54405 2.8029 1.33333 3.33333 1.33333ZM12.6667 13.3333L3.33333 13.3333C2.8029 13.3333 2.29419 13.1226 1.91912 12.7475C1.54405 12.3725 1.33333 11.8638 1.33333 11.3333L1.33333 5.32933L14.6667 5.254L14.6667 11.3333C14.6667 11.8638 14.456 12.3725 14.0809 12.7475C13.7058 13.1226 13.1971 13.3333 12.6667 13.3333Z" fill="#F0F0FA"/>
</svg>
