<svg width="22" height="21" viewBox="0 0 22 21" fill="none" xmlns="http://www.w3.org/2000/svg">
<rect width="21" height="21" transform="translate(21.8906 21) rotate(-180)" fill="url(#paint0_linear_18_13672)"/>
<path d="M12.7427 14.1049C12.7896 14.0584 12.8268 14.0031 12.8522 13.9422C12.8776 13.8813 12.8906 13.8159 12.8906 13.7499C12.8906 13.6839 12.8776 13.6185 12.8522 13.5576C12.8268 13.4967 12.7896 13.4414 12.7427 13.3949L10.4527 11.1049C10.4059 11.0584 10.3687 11.0031 10.3433 10.9422C10.3179 10.8813 10.3048 10.8159 10.3048 10.7499C10.3048 10.6839 10.3179 10.6185 10.3433 10.5576C10.3687 10.4967 10.4059 10.4414 10.4527 10.3949L12.7427 8.10491C12.7896 8.05843 12.8268 8.00313 12.8522 7.9422C12.8776 7.88127 12.8906 7.81591 12.8906 7.74991C12.8906 7.6839 12.8776 7.61855 12.8522 7.55762C12.8268 7.49669 12.7896 7.44139 12.7427 7.39491C12.649 7.30178 12.5223 7.24951 12.3902 7.24951C12.2581 7.24951 12.1314 7.30178 12.0377 7.39491L9.74273 9.68991C9.46183 9.97116 9.30406 10.3524 9.30406 10.7499C9.30406 11.1474 9.46183 11.5287 9.74273 11.8099L12.0377 14.1049C12.1314 14.198 12.2581 14.2503 12.3902 14.2503C12.5223 14.2503 12.649 14.198 12.7427 14.1049Z" fill="#F0F0FA"/>
<defs>
<linearGradient id="paint0_linear_18_13672" x1="11.55" y1="11.4844" x2="2.56707e-07" y2="11.4844" gradientUnits="userSpaceOnUse">
<stop stop-color="#252544"/>
<stop offset="1" stop-color="#252544" stop-opacity="0"/>
</linearGradient>
</defs>
</svg>
