<svg width="21" height="21" viewBox="0 0 21 21" fill="none" xmlns="http://www.w3.org/2000/svg">
<rect width="21" height="21" fill="url(#paint0_linear_18_13669)"/>
<path d="M9.1479 6.89509C9.10103 6.94158 9.06384 6.99688 9.03845 7.05781C9.01307 7.11873 9 7.18409 9 7.25009C9 7.3161 9.01307 7.38145 9.03845 7.44238C9.06384 7.50331 9.10103 7.55861 9.1479 7.60509L11.4379 9.89509C11.4848 9.94157 11.522 9.99687 11.5473 10.0578C11.5727 10.1187 11.5858 10.1841 11.5858 10.2501C11.5858 10.3161 11.5727 10.3815 11.5473 10.4424C11.522 10.5033 11.4848 10.5586 11.4379 10.6051L9.1479 12.8951C9.10103 12.9416 9.06384 12.9969 9.03845 13.0578C9.01307 13.1187 9 13.1841 9 13.2501C9 13.3161 9.01307 13.3815 9.03845 13.4424C9.06384 13.5033 9.10103 13.5586 9.1479 13.6051C9.24158 13.6982 9.36831 13.7505 9.5004 13.7505C9.63249 13.7505 9.75922 13.6982 9.8529 13.6051L12.1479 11.3101C12.4288 11.0288 12.5866 10.6476 12.5866 10.2501C12.5866 9.85259 12.4288 9.47134 12.1479 9.19009L9.8529 6.89509C9.75922 6.80197 9.63249 6.7497 9.5004 6.7497C9.36831 6.7497 9.24158 6.80197 9.1479 6.89509Z" fill="#F0F0FA"/>
<defs>
<linearGradient id="paint0_linear_18_13669" x1="11.55" y1="11.4844" x2="2.56707e-07" y2="11.4844" gradientUnits="userSpaceOnUse">
<stop stop-color="#252544"/>
<stop offset="1" stop-color="#252544" stop-opacity="0"/>
</linearGradient>
</defs>
</svg>
