<svg width="20" height="20" viewBox="0 0 20 20" fill="none" xmlns="http://www.w3.org/2000/svg">
<g clip-path="url(#clip0_848:24057)">
<path d="M1.24976 1.36086C-0.321908 2.99336 -0.000240833 4.72753 -0.000240833 9.99586C-0.000240833 14.3709 -0.763574 18.7567 3.23143 19.7892C4.47893 20.11 15.5323 20.11 16.7781 19.7875C18.4414 19.3584 19.7948 18.0092 19.9798 15.6567C20.0056 15.3284 20.0056 4.6692 19.9789 4.3342C19.7823 1.82836 18.2398 0.384195 16.2073 0.0916952C15.7414 0.0241952 15.6481 0.00419516 13.2581 2.8489e-05C4.78059 0.00419516 2.92226 -0.373305 1.24976 1.36086V1.36086Z" fill="url(#paint0_linear_848:24057)"/>
<path d="M9.99785 2.61591C6.97202 2.61591 4.09869 2.34674 3.00119 5.16341C2.54785 6.32674 2.61369 7.83757 2.61369 10.0009C2.61369 11.8992 2.55285 13.6834 3.00119 14.8376C4.09619 17.6559 6.99285 17.3859 9.99619 17.3859C12.8937 17.3859 15.8812 17.6876 16.992 14.8376C17.4462 13.6626 17.3795 12.1742 17.3795 10.0009C17.3795 7.11591 17.5387 5.25341 16.1395 3.85507C14.7229 2.43841 12.807 2.61591 9.99452 2.61591H9.99785ZM9.33619 3.94674C15.6479 3.93674 16.4512 3.23507 16.0079 12.9826C15.8504 16.4301 13.2254 16.0517 9.99869 16.0517C4.11535 16.0517 3.94619 15.8834 3.94619 9.99757C3.94619 4.04341 4.41285 3.95007 9.33619 3.94507V3.94674ZM13.9395 5.17257C13.4504 5.17257 13.0537 5.56924 13.0537 6.05841C13.0537 6.54757 13.4504 6.94424 13.9395 6.94424C14.4287 6.94424 14.8254 6.54757 14.8254 6.05841C14.8254 5.56924 14.4287 5.17257 13.9395 5.17257V5.17257ZM9.99785 6.20841C7.90369 6.20841 6.20619 7.90674 6.20619 10.0009C6.20619 12.0951 7.90369 13.7926 9.99785 13.7926C12.092 13.7926 13.7887 12.0951 13.7887 10.0009C13.7887 7.90674 12.092 6.20841 9.99785 6.20841V6.20841ZM9.99785 7.53924C13.252 7.53924 13.2562 12.4626 9.99785 12.4626C6.74452 12.4626 6.73952 7.53924 9.99785 7.53924Z" fill="white"/>
</g>
<defs>
<linearGradient id="paint0_linear_848:24057" x1="1.28811" y1="18.7226" x2="19.876" y2="2.635" gradientUnits="userSpaceOnUse">
<stop stop-color="#FFDD55"/>
<stop offset="0.5" stop-color="#FF543E"/>
<stop offset="1" stop-color="#C837AB"/>
</linearGradient>
<clipPath id="clip0_848:24057">
<rect width="20" height="20" fill="white"/>
</clipPath>
</defs>
</svg>
