<svg width="12" height="12" viewBox="0 0 12 12" fill="none" xmlns="http://www.w3.org/2000/svg">
<path d="M8.51421 0H3.48581C1.56373 0 0 1.56373 0 3.48581V8.51419C0 10.4363 1.56373 12 3.48581 12H8.51419C10.4363 12 12 10.4363 12 8.51421V3.48581C12 1.56373 10.4363 0 8.51421 0ZM11.0625 8.51419C11.0625 9.91934 9.91934 11.0625 8.51421 11.0625H3.48581C2.08066 11.0625 0.9375 9.91934 0.9375 8.51421V3.48581C0.9375 2.08066 2.08066 0.9375 3.48581 0.9375H8.51419C9.91934 0.9375 11.0625 2.08066 11.0625 3.48581V8.51419Z" fill="#575773"/>
<path d="M6 2.76562C4.21655 2.76562 2.76562 4.21655 2.76562 6C2.76562 7.78345 4.21655 9.23438 6 9.23438C7.78345 9.23438 9.23438 7.78345 9.23438 6C9.23438 4.21655 7.78345 2.76562 6 2.76562ZM6 8.29688C4.73351 8.29688 3.70312 7.26649 3.70312 6C3.70312 4.73351 4.73351 3.70312 6 3.70312C7.26649 3.70312 8.29688 4.73351 8.29688 6C8.29688 7.26649 7.26649 8.29688 6 8.29688Z" fill="#575773"/>
<path d="M9.28125 3.1875C9.54013 3.1875 9.75 2.97763 9.75 2.71875C9.75 2.45987 9.54013 2.25 9.28125 2.25C9.02237 2.25 8.8125 2.45987 8.8125 2.71875C8.8125 2.97763 9.02237 3.1875 9.28125 3.1875Z" fill="#575773"/>
</svg>
