<svg width="14" height="16" viewBox="0 0 14 16" fill="none" xmlns="http://www.w3.org/2000/svg">
<path d="M11.6627 5.31061L5.30267 0.643942C4.80593 0.280198 4.21815 0.0611376 3.60451 0.0110503C2.99087 -0.0390371 2.37535 0.0818059 1.8262 0.36018C1.27704 0.638553 0.815718 1.06358 0.493372 1.58813C0.171027 2.11268 0.000257343 2.71626 0 3.33194V12.6653C0.000109848 13.2812 0.170889 13.8851 0.493383 14.4099C0.815878 14.9347 1.27748 15.3599 1.82695 15.6382C2.37642 15.9166 2.99227 16.0372 3.60616 15.9868C4.22006 15.9364 4.80797 15.7169 5.30467 15.3526L11.6647 10.6859C12.0868 10.3763 12.4302 9.97165 12.6668 9.50465C12.9034 9.03765 13.0268 8.52148 13.0268 7.99794C13.0268 7.47441 12.9034 6.95823 12.6668 6.49124C12.4302 6.02424 12.0868 5.61954 11.6647 5.30994L11.6627 5.31061ZM10.8733 9.61061L4.51333 14.2773C4.21534 14.495 3.86291 14.6261 3.49505 14.6559C3.12718 14.6858 2.75824 14.6132 2.42904 14.4464C2.09985 14.2795 1.82326 14.0248 1.62987 13.7104C1.43648 13.3961 1.33385 13.0343 1.33333 12.6653V3.33194C1.32963 2.96217 1.43033 2.59886 1.62385 2.28376C1.81737 1.96865 2.09587 1.71454 2.42733 1.55061C2.70926 1.4072 3.02103 1.33229 3.33733 1.33194C3.76126 1.33356 4.17348 1.4712 4.51333 1.72461L10.8733 6.39127C11.1263 6.57707 11.332 6.81981 11.4738 7.09985C11.6156 7.3799 11.6895 7.68938 11.6895 8.00327C11.6895 8.31717 11.6156 8.62665 11.4738 8.9067C11.332 9.18674 11.1263 9.42948 10.8733 9.61528V9.61061Z" fill="#CFCFE4"/>
</svg>
