<svg width="8" height="4" viewBox="0 0 8 4" fill="none" xmlns="http://www.w3.org/2000/svg">
<path d="M3.8112 1.53942C3.83597 1.51662 3.8654 1.49853 3.8978 1.48619C3.93019 1.47385 3.96492 1.4675 4 1.4675C4.03508 1.4675 4.06981 1.47385 4.1022 1.48619C4.1346 1.49853 4.16403 1.51662 4.1888 1.53942L6.63409 3.78475C6.78409 3.92253 6.98757 3.99995 7.19976 4C7.41194 4.00005 7.61546 3.92271 7.76554 3.785C7.91561 3.64729 7.99995 3.46049 8 3.2657C8.00005 3.07091 7.91581 2.88407 7.7658 2.7463L5.31998 0.500959C4.96956 0.180153 4.49488 -1.53214e-07 4 -1.74846e-07C3.50512 -1.96478e-07 3.03044 0.180153 2.68002 0.500959L0.234197 2.7463C0.0841931 2.88407 -5.0679e-05 3.0709 -1.42748e-07 3.2657C4.94398e-05 3.46049 0.08439 3.64729 0.234464 3.785C0.384539 3.92271 0.588055 4.00004 0.800242 4C1.01243 3.99995 1.21591 3.92253 1.36591 3.78475L3.8112 1.53942Z" fill="#9797BB"/>
</svg>
