<svg width="16" height="17" viewBox="0 0 16 17" fill="none" xmlns="http://www.w3.org/2000/svg">
<g clip-path="url(#clip0_1059_27378)">
<path d="M4.33333 0.1875C3.71449 0.1875 3.121 0.433333 2.68342 0.870917C2.24583 1.3085 2 1.90199 2 2.52083V13.8542C2 14.473 2.24583 15.0665 2.68342 15.5041C3.121 15.9417 3.71449 16.1875 4.33333 16.1875C4.95217 16.1875 5.54566 15.9417 5.98325 15.5041C6.42083 15.0665 6.66667 14.473 6.66667 13.8542V2.52083C6.66667 1.90199 6.42083 1.3085 5.98325 0.870917C5.54566 0.433333 4.95217 0.1875 4.33333 0.1875V0.1875ZM5.33333 13.8542C5.33333 14.1194 5.22798 14.3737 5.04044 14.5613C4.8529 14.7488 4.59855 14.8542 4.33333 14.8542C4.06812 14.8542 3.81376 14.7488 3.62623 14.5613C3.43869 14.3737 3.33333 14.1194 3.33333 13.8542V2.52083C3.33333 2.25562 3.43869 2.00126 3.62623 1.81373C3.81376 1.62619 4.06812 1.52083 4.33333 1.52083C4.59855 1.52083 4.8529 1.62619 5.04044 1.81373C5.22798 2.00126 5.33333 2.25562 5.33333 2.52083V13.8542Z" fill="#CFCFE4"/>
<path d="M11.6663 0.1875C11.0475 0.1875 10.454 0.433333 10.0164 0.870917C9.57884 1.3085 9.33301 1.90199 9.33301 2.52083V13.8542C9.33301 14.473 9.57884 15.0665 10.0164 15.5041C10.454 15.9417 11.0475 16.1875 11.6663 16.1875C12.2852 16.1875 12.8787 15.9417 13.3163 15.5041C13.7538 15.0665 13.9997 14.473 13.9997 13.8542V2.52083C13.9997 1.90199 13.7538 1.3085 13.3163 0.870917C12.8787 0.433333 12.2852 0.1875 11.6663 0.1875V0.1875ZM12.6663 13.8542C12.6663 14.1194 12.561 14.3737 12.3735 14.5613C12.1859 14.7488 11.9316 14.8542 11.6663 14.8542C11.4011 14.8542 11.1468 14.7488 10.9592 14.5613C10.7717 14.3737 10.6663 14.1194 10.6663 13.8542V2.52083C10.6663 2.25562 10.7717 2.00126 10.9592 1.81373C11.1468 1.62619 11.4011 1.52083 11.6663 1.52083C11.9316 1.52083 12.1859 1.62619 12.3735 1.81373C12.561 2.00126 12.6663 2.25562 12.6663 2.52083V13.8542Z" fill="#CFCFE4"/>
</g>
<defs>
<clipPath id="clip0_1059_27378">
<rect width="16" height="16" fill="white" transform="translate(0 0.1875)"/>
</clipPath>
</defs>
</svg>
