<svg width="12" height="12" viewBox="0 0 12 12" fill="none" xmlns="http://www.w3.org/2000/svg">
<path fill-rule="evenodd" clip-rule="evenodd" d="M5.99973 0C7.5973 0.00064087 9.09838 0.619537 10.2268 1.74261C11.3708 2.88144 12.0005 4.37531 12 5.94901C11.9993 7.53387 11.3718 9.02664 10.233 10.1523C9.097 11.2752 7.59354 11.8936 5.99982 11.8936H5.99743C5.06123 11.8932 4.133 11.6724 3.30109 11.2536L0.0164037 12L0.730836 8.75583C0.252287 7.87308 0.000183282 6.90601 0 5.94736V5.94626V5.94443C0.00146625 4.36057 0.628656 2.86588 1.76647 1.74115C2.90227 0.618347 4.40572 0 5.99973 0ZM5.99762 10.957H5.99973C8.79019 10.957 11.0613 8.71033 11.0624 5.94873C11.0629 4.62589 10.5311 3.36777 9.5651 2.4061C8.61351 1.45908 7.34721 0.937134 5.99954 0.936584C3.2099 0.936584 0.939227 3.18539 0.937486 5.94635C0.937486 6.79935 1.17777 7.66415 1.63249 8.44757L1.72395 8.60513L1.24952 10.7592L3.43369 10.2629L3.58902 10.3471C4.32407 10.7458 5.157 10.9567 5.99762 10.957ZM4.10412 3.32461H4.36712C4.46491 3.32864 4.57313 3.33633 4.67595 3.56393H4.67586C4.74676 3.72091 4.86533 4.01467 4.95901 4.24677C5.02662 4.41428 5.08126 4.54967 5.09567 4.57833C5.12994 4.64663 5.15285 4.72647 5.10712 4.81765C5.09769 4.83642 5.08938 4.85374 5.08152 4.8701C5.05119 4.93325 5.02768 4.98222 4.97324 5.04562C4.9046 5.12536 4.8213 5.20904 4.75962 5.2702C4.6908 5.33841 4.61932 5.41238 4.69932 5.54907C4.77942 5.68585 5.06259 6.14782 5.47066 6.5101C5.91143 6.90141 6.29086 7.06754 6.48212 7.15128C6.51836 7.16714 6.54784 7.18005 6.56971 7.19098C6.70699 7.25937 6.78708 7.24792 6.86709 7.15664C6.94718 7.06546 7.2167 6.74942 7.30825 6.61282C7.39979 6.47595 7.49125 6.49874 7.61707 6.54425C7.73682 6.58773 8.35187 6.89433 8.52931 6.98279C8.53832 6.98728 8.54619 6.9912 8.55282 6.9945C8.57965 7.00786 8.60474 7.01992 8.628 7.03109C8.72363 7.07703 8.78828 7.10809 8.81592 7.1539C8.85019 7.21103 8.85019 7.48458 8.73583 7.80365C8.62146 8.12271 8.06107 8.43051 7.80943 8.45321C7.78524 8.45541 7.7612 8.45822 7.73646 8.46112C7.50396 8.48838 7.21042 8.52278 6.16255 8.11135C4.87316 7.60505 4.02309 6.35026 3.8476 6.09122C3.83324 6.07001 3.82339 6.05548 3.8182 6.04858L3.81661 6.04646C3.7424 5.9477 3.25781 5.30267 3.25781 4.63528C3.25781 4.00595 3.56844 3.67604 3.71138 3.52423C3.72115 3.51384 3.73014 3.5043 3.73819 3.49554C3.86392 3.35885 4.01257 3.32461 4.10412 3.32461Z" fill="#575773"/>
</svg>
